<svg width="18" height="24" viewBox="0 0 18 24" fill="none" xmlns="http://www.w3.org/2000/svg">
<path d="M17.25 10.9997H0.75C0.335786 10.9997 0 11.4474 0 11.9997C0 12.552 0.335786 12.9997 0.75 12.9997H17.25C17.6642 12.9997 18 12.552 18 11.9997C18 11.4474 17.6642 10.9997 17.25 10.9997Z" fill="white"/>
<path d="M17.25 4.00031H0.75C0.335786 4.00031 0 4.44802 0 5.0003C0 5.55259 0.335786 6.0003 0.75 6.0003H17.25C17.6642 6.0003 18 5.55259 18 5.0003C18 4.44802 17.6642 4.00031 17.25 4.00031Z" fill="white"/>
<path d="M17.25 18H0.75C0.335786 18 0 18.4477 0 19C0 19.5523 0.335786 20 0.75 20H17.25C17.6642 20 18 19.5523 18 19C18 18.4477 17.6642 18 17.25 18Z" fill="white"/>
</svg>
