<svg width="117" height="35" viewBox="0 0 117 35" fill="none" xmlns="http://www.w3.org/2000/svg">
<path fill-rule="evenodd" clip-rule="evenodd" d="M54.3418 22.2188C38.3297 20.9098 20.7288 24.482 0.570974 33.1189C1.2578 34.9172 5.20497 34.171 6.91789 33.4981C21.9866 27.5404 36.3355 24.3964 49.6334 24.1395C57.3539 23.9927 63.5519 24.9591 69.1375 27.1856C71.9262 28.2989 75.17 30.819 77.4125 34.33C72.4558 25.0937 63.163 22.9406 54.3418 22.2188Z" fill="#D82332"/>
<path fill-rule="evenodd" clip-rule="evenodd" d="M1.30459 7.92731C1.08306 7.92731 0.910751 7.92731 0.750754 7.92731C0.221534 7.92731 0 7.90285 0 7.59701C0 7.20554 0.923059 6.87523 1.80919 5.60295C2.8061 4.13493 2.91687 3.32751 3.24917 3.32751C3.49532 3.32751 3.53224 3.43762 3.53224 3.68229C3.53224 3.74345 3.53224 3.79239 3.53224 3.85356V6.85076H5.08298C5.52604 6.85076 5.66143 6.85076 5.66143 7.3768C5.66143 7.85391 5.55066 7.90285 5.19374 7.90285H3.53224V15.2552C3.53224 17.2248 3.53224 18.1178 4.28299 18.1178C5.03375 18.1178 5.34143 16.9189 5.67373 16.9189C5.80912 16.9189 5.91988 17.0046 5.91988 17.1147C5.91988 18.0811 4.70144 19.7816 3.42147 19.7816C1.67381 19.7816 1.30459 18.3136 1.30459 15.2796V7.92731Z" fill="white"/>
<path fill-rule="evenodd" clip-rule="evenodd" d="M7.22447 9.43204C7.22447 8.84483 7.13832 8.71026 6.78141 8.62462C6.38757 8.53899 6.09219 8.62462 6.09219 8.40442C6.09219 8.09858 6.59679 7.92731 7.42139 7.48691C8.50445 6.8997 8.89829 6.45929 9.05828 6.45929C9.19366 6.45929 9.2552 6.5694 9.2552 6.7896V8.34325C9.2552 8.53899 9.2552 8.67356 9.2552 8.73473C9.2552 8.82036 9.36597 8.86929 9.42751 8.86929C9.64904 8.86929 9.84596 8.45335 10.3136 7.86615C10.9782 7.03427 11.6428 6.61833 12.3936 6.61833C13.3905 6.61833 14.0059 7.25447 14.0059 8.41665C14.0059 9.44427 13.5013 10.0315 12.7874 10.0315C12.0613 10.0315 11.7905 9.75011 11.6428 9.06503C11.5567 8.69803 11.5813 8.34325 11.249 8.34325C10.2767 8.34325 9.52597 9.84797 9.52597 12.4782V17.7631C9.52597 18.4848 9.66135 18.7907 10.1044 18.9008C10.4983 18.9864 10.7936 18.8763 10.7936 19.2066C10.7936 19.4513 10.6829 19.5369 10.3998 19.5369C10.289 19.5369 9.64904 19.5124 8.50445 19.5124C7.31063 19.5124 6.64602 19.5369 6.49833 19.5369C6.1045 19.5369 5.91988 19.4268 5.91988 19.1699C5.91988 18.8641 6.20295 18.8641 6.67064 18.7295C7.02755 18.6194 7.19986 18.179 7.19986 17.4572V9.43204" fill="white"/>
<path fill-rule="evenodd" clip-rule="evenodd" d="M17.095 1.68823C17.7843 1.68823 18.2027 2.27543 18.2027 3.32752C18.2027 4.35513 17.7596 4.96681 17.095 4.96681C16.4304 4.96681 15.9874 4.35513 15.9874 3.32752C15.9874 2.32437 16.4674 1.68823 17.095 1.68823ZM15.7658 9.54214C15.7658 8.95493 15.6797 8.82036 15.3228 8.73473C14.9289 8.64909 14.6582 8.71026 14.6582 8.49006C14.6582 8.07412 15.2366 8.09858 15.9381 7.74381C17.2427 7.0465 17.7473 6.58163 17.8827 6.58163C18.0181 6.58163 18.0796 6.69173 18.0796 6.91193V17.7631C18.0796 18.4848 18.215 18.7907 18.6704 18.9008C19.0642 18.9864 19.3965 18.8763 19.3965 19.2066C19.3965 19.4513 19.2612 19.5369 18.9781 19.5369C18.8673 19.5369 18.2273 19.5124 17.0827 19.5124C15.8889 19.5124 15.2489 19.5369 15.1135 19.5369C14.7197 19.5369 14.5351 19.4268 14.5351 19.1699C14.5351 18.8641 14.7812 18.8641 15.2612 18.7295C15.6182 18.6194 15.7905 18.179 15.7905 17.4572V9.54214H15.7658Z" fill="white"/>
<path fill-rule="evenodd" clip-rule="evenodd" d="M23.2118 23.3905V19.0353C24.0488 19.5614 24.8241 19.8183 25.6856 19.8183C28.1594 19.8183 30.5225 17.0413 30.5225 12.9675C30.5225 9.11397 28.4917 6.58163 26.301 6.58163C25.3533 6.58163 24.7749 7.05874 24.0488 7.65818C23.5195 8.09859 23.2734 8.35549 23.1626 8.35549C22.9903 8.35549 22.9903 8.13529 22.9903 7.80498V6.91194C22.9903 6.69173 22.9288 6.58163 22.7934 6.58163C22.5472 6.58163 22.0673 7.21777 20.8242 7.80498C20.0488 8.15975 19.5442 8.15975 19.5442 8.44112C19.5442 8.91823 19.9381 8.77143 20.5165 8.85706C20.9104 8.91823 20.9596 9.10173 20.9596 9.66447V23.574C20.9596 24.4915 20.7134 24.9319 20.0365 24.9319C20.0119 24.9319 19.9258 24.9319 19.8642 24.9319C19.5073 24.9319 19.335 25.042 19.335 25.2622C19.335 25.5069 19.5319 25.6292 19.9135 25.6292C20.0488 25.6292 20.775 25.6047 22.1411 25.6047C23.6918 25.6047 24.5903 25.6537 24.7503 25.6537C25.0334 25.6537 25.1687 25.5436 25.1687 25.2989C25.1687 24.9686 24.7749 25.0787 23.9749 24.9686C23.2488 24.834 23.2118 24.5037 23.2118 23.3905ZM23.2488 11.157C23.2488 9.10173 23.6918 8.04965 25.1441 8.04965C26.8425 8.04965 27.9502 9.93361 27.9502 13.5425C27.9502 17.1758 26.8056 19.0965 25.1933 19.0965C23.7534 19.0965 23.2488 17.7631 23.2488 14.986V11.157Z" fill="white"/>
<path fill-rule="evenodd" clip-rule="evenodd" d="M39.4577 9.43204C39.4577 10.215 39.4331 10.4841 38.9285 10.4841C38.4239 10.4841 38.0669 10.1293 37.7592 9.37087C37.23 8.14752 37.0085 7.37681 36.1224 7.37681C35.0393 7.37681 33.8455 9.37087 33.8455 12.2335C33.8455 15.977 35.4824 18.3136 37.1316 18.3136C37.7716 18.3136 38.3254 17.9833 38.83 17.3716C39.2485 16.8455 39.2731 16.2339 39.6669 16.2339C39.8638 16.2339 39.95 16.3684 39.95 16.6498C39.95 16.9312 39.7777 17.4817 39.3961 18.0689C38.5592 19.2922 37.5623 19.8672 36.2577 19.8672C33.6116 19.8672 31.3101 17.0413 31.3101 13.2122C31.3101 9.35864 33.6978 6.58163 36.7008 6.58163C38.0054 6.58163 38.9777 6.88747 39.2854 7.16884C39.4577 7.30341 39.4823 7.67041 39.4823 8.22092V9.18737C39.4577 9.26077 39.4577 9.3464 39.4577 9.43204Z" fill="white"/>
<path fill-rule="evenodd" clip-rule="evenodd" d="M47.5437 12.3681C47.9867 12.3681 48.3437 12.3681 48.6267 12.3681C49.6852 12.3681 49.7344 12.2824 49.7344 11.2915C49.7344 8.26985 48.1714 6.52046 45.8083 6.52046C42.8053 6.52046 40.6146 9.32194 40.6146 13.518C40.6146 17.2615 42.7807 19.9284 45.5622 19.9284C48.0606 19.9284 49.8206 17.9343 49.8206 16.6865C49.8206 16.4663 49.7344 16.3195 49.5375 16.3195C49.119 16.3195 49.119 16.9556 48.676 17.4817C48.0606 18.179 47.3098 18.5338 46.4237 18.5338C44.4545 18.5338 43.113 16.5642 43.113 13.2856C43.113 12.4537 43.2484 12.3681 44.0237 12.3681C44.2699 12.3681 44.6022 12.3681 45.0576 12.3681H47.5437ZM45.8822 7.09544C46.8545 7.09544 47.6052 8.18422 47.6052 9.98254C47.6052 11.5362 46.9898 11.7564 44.356 11.7564C43.5191 11.7564 43.2115 11.6218 43.2115 11.0958C43.2115 10.4841 43.5191 9.29747 44.1345 8.29432C44.6268 7.48691 45.1806 7.09544 45.8822 7.09544Z" fill="white"/>
<path fill-rule="evenodd" clip-rule="evenodd" d="M51.7159 9.43204C51.7159 8.84483 51.6297 8.71026 51.2728 8.62462C50.879 8.53899 50.6082 8.62462 50.6082 8.40442C50.6082 8.09858 51.0759 7.92731 51.9128 7.48691C52.9959 6.8997 53.3897 6.45929 53.5497 6.45929C53.6851 6.45929 53.7466 6.5694 53.7466 6.7896V7.85391C53.7466 8.04965 53.7712 8.18422 53.7712 8.24538C53.7712 8.33102 53.8574 8.41665 53.9066 8.41665C54.042 8.41665 54.3005 8.11082 54.7928 7.71934C55.7158 6.99757 56.5404 6.58163 57.5989 6.58163C60.0973 6.58163 60.9588 8.07412 60.9588 11.108V17.2982C60.9588 18.1912 60.9588 18.546 61.488 18.8029C61.8818 18.9742 62.4603 18.7784 62.4603 19.2188C62.4603 19.5247 62.128 19.5491 61.3772 19.5491C60.9834 19.5491 60.4911 19.5247 59.8757 19.5247C59.4327 19.5247 59.1004 19.5491 58.8788 19.5491C58.6819 19.5491 58.3496 19.5247 57.9065 19.5247C57.5989 19.5247 57.4635 19.4635 57.4635 19.28C57.4635 18.8396 57.9312 18.9742 58.2142 18.8151C58.6327 18.5705 58.6573 18.1545 58.6573 17.3716V10.6187C58.6573 8.67356 58.1035 7.75604 56.5773 7.75604C54.7928 7.75604 54.0174 8.80813 54.0174 11.0346V17.7631C54.0174 18.4848 54.1528 18.7907 54.5958 18.9008C54.9897 18.9864 55.322 18.8763 55.322 19.2066C55.322 19.4513 55.1866 19.5369 54.9035 19.5369C54.7928 19.5369 54.1528 19.5124 53.0082 19.5124C51.8144 19.5124 51.1498 19.5369 51.0021 19.5369C50.6082 19.5369 50.4482 19.4268 50.4482 19.1699C50.4482 18.8641 50.6944 18.8641 51.1744 18.7295C51.5313 18.6194 51.7036 18.179 51.7036 17.4572L51.7159 9.43204Z" fill="white"/>
<path fill-rule="evenodd" clip-rule="evenodd" d="M63.6418 7.92731C63.4203 7.92731 63.248 7.92731 63.088 7.92731C62.5588 7.92731 62.3372 7.90285 62.3372 7.59701C62.3372 7.20554 63.2603 6.87523 64.1464 5.60295C65.1433 4.13493 65.2541 3.32751 65.5987 3.32751C65.8448 3.32751 65.8818 3.43762 65.8818 3.68229C65.8818 3.74345 65.8818 3.79239 65.8818 3.85356V6.85076H67.4325C67.8756 6.85076 68.0109 6.85076 68.0109 7.3768C68.0109 7.85391 67.9002 7.90285 67.5433 7.90285H65.8695V15.2552C65.8695 17.2248 65.8695 18.1178 66.6202 18.1178C67.371 18.1178 67.6786 16.9189 68.0109 16.9189C68.1463 16.9189 68.2571 17.0046 68.2571 17.1147C68.2571 18.0811 67.0387 19.7816 65.7587 19.7816C64.011 19.7816 63.6418 18.3136 63.6418 15.2796V7.92731Z" fill="white"/>
<path fill-rule="evenodd" clip-rule="evenodd" d="M69.8448 9.43204C69.8448 8.84483 69.7586 8.71026 69.4017 8.62462C69.0079 8.53899 68.7125 8.62462 68.7125 8.40442C68.7125 8.09858 69.2171 7.92731 70.0417 7.48691C71.1247 6.8997 71.5186 6.45929 71.6786 6.45929C71.814 6.45929 71.8755 6.5694 71.8755 6.7896V8.34325C71.8755 8.53899 71.8755 8.67356 71.8755 8.73473C71.8755 8.82036 71.9863 8.86929 72.0478 8.86929C72.2693 8.86929 72.4662 8.45335 72.9339 7.86615C73.5985 7.0465 74.2631 6.63056 75.0139 6.63056C76.0108 6.63056 76.6262 7.2667 76.6262 8.42889C76.6262 9.4565 76.1216 10.0437 75.4077 10.0437C74.6816 10.0437 74.4108 9.76234 74.2631 9.07726C74.177 8.71026 74.2139 8.35549 73.8693 8.35549C72.897 8.35549 72.1463 9.86021 72.1463 12.4904V17.7631C72.1463 18.4848 72.2816 18.7907 72.7247 18.9008C73.1185 18.9864 73.4262 18.8763 73.4262 19.2066C73.4262 19.4513 73.3155 19.5369 73.0324 19.5369C72.9216 19.5369 72.2816 19.5124 71.137 19.5124C69.9432 19.5124 69.2786 19.5369 69.1309 19.5369C68.7371 19.5369 68.5525 19.4268 68.5525 19.1699C68.5525 18.8641 68.8356 18.8641 69.3032 18.7295C69.6601 18.6194 69.8325 18.179 69.8325 17.4572V9.43204" fill="white"/>
<path fill-rule="evenodd" clip-rule="evenodd" d="M82.5214 10.0682C82.5214 11.1203 82.5214 11.4016 81.6599 12.0378C78.7677 14.1419 77.0692 15.4509 77.0692 17.5918C77.0692 19.0109 77.9308 19.8917 79.1861 19.8917C79.9615 19.8917 80.663 19.5369 81.3276 18.8396C81.8815 18.2524 82.1399 17.7875 82.4722 17.7875C82.7184 17.7875 82.8291 18.2279 83.223 19.0109C83.4199 19.4268 83.9983 19.7326 84.6999 19.7326C85.9552 19.7326 87.0383 18.4604 87.0383 17.4572C87.0383 17.2125 86.9521 17.0657 86.7921 17.0657C86.4598 17.0657 86.4598 17.9588 85.7091 17.9588C84.9829 17.9588 84.9337 17.3716 84.9337 16.0137V9.3464C84.9337 7.29117 84.5152 6.52046 82.1768 6.52046C80.7246 6.52046 79.3953 7.07097 78.3123 8.13529C77.4262 8.99163 77.0077 9.82351 77.0077 10.5453C77.0077 11.1814 77.2292 11.4628 77.7338 11.4628C79.0384 11.4628 79.1246 10.4597 79.4077 9.18737C79.6907 7.93955 80.5769 7.1933 81.463 7.1933C82.3491 7.1933 82.5461 7.80498 82.5461 9.1629V10.0682H82.5214ZM82.6322 13.6526V14.3744C82.6322 16.7354 81.8815 17.9833 80.7122 17.9833C79.9615 17.9833 79.383 17.3471 79.383 16.4296C79.383 15.6834 79.8261 14.6557 80.6876 13.7627C81.463 12.9308 81.8815 12.4292 82.2507 12.4292C82.583 12.4292 82.6322 12.8452 82.6322 13.6526Z" fill="white"/>
<path fill-rule="evenodd" clip-rule="evenodd" d="M87.9121 2.99721C87.9121 2.41 87.826 2.27543 87.469 2.1898C87.0752 2.10416 86.7798 2.16533 86.7798 1.94513C86.7798 1.52919 87.3952 1.55366 88.0844 1.19888C89.389 0.501574 89.8936 0 90.029 0C90.1644 0 90.2259 0.110102 90.2259 0.330305V17.763C90.2259 18.4848 90.3613 18.7907 90.8044 18.9008C91.1982 18.9864 91.5059 18.8763 91.5059 19.2066C91.5059 19.4513 91.3951 19.5369 91.112 19.5369C91.0013 19.5369 90.3613 19.5124 89.2167 19.5124C88.0229 19.5124 87.3583 19.5369 87.2106 19.5369C86.8167 19.5369 86.6321 19.4268 86.6321 19.1699C86.6321 18.8641 86.9152 18.8641 87.3829 18.7295C87.7398 18.6194 87.9121 18.179 87.9121 17.4572V2.99721Z" fill="white"/>
<path fill-rule="evenodd" clip-rule="evenodd" d="M94.0658 16.6743C94.8166 16.6743 95.2597 17.1758 95.2597 18.1668C95.2597 19.1087 94.792 19.6715 94.0658 19.6715C93.2905 19.6715 92.872 19.1454 92.872 18.1668C92.8597 17.1758 93.2782 16.6743 94.0658 16.6743Z" fill="white"/>
<path fill-rule="evenodd" clip-rule="evenodd" d="M104.047 10.4841C103.543 10.4841 103.186 10.1293 102.878 9.37087C102.349 8.14752 102.127 7.37681 101.241 7.37681C100.158 7.37681 98.9642 9.37087 98.9642 12.2335C98.9642 15.977 100.601 18.3136 102.25 18.3136C102.89 18.3136 103.444 17.9833 103.949 17.3716C104.367 16.8455 104.392 16.2339 104.786 16.2339C104.983 16.2339 105.069 16.3684 105.069 16.6498C105.069 16.9312 104.896 17.4817 104.515 18.0689C103.678 19.2922 102.681 19.8672 101.376 19.8672C98.7304 19.8672 96.4289 17.0413 96.4289 13.2122C96.4289 9.35864 98.8165 6.58163 101.82 6.58163C103.124 6.58163 104.096 6.88747 104.404 7.16884C104.564 7.30341 104.601 7.67041 104.601 8.22092V9.18737C104.601 9.273 104.601 9.35864 104.601 9.43204C104.576 10.2027 104.539 10.4841 104.047 10.4841Z" fill="white"/>
<path fill-rule="evenodd" clip-rule="evenodd" d="M111.493 10.0682C111.493 11.1203 111.493 11.4016 110.632 12.0378C107.739 14.1419 106.041 15.4509 106.041 17.5918C106.041 19.0109 106.902 19.8917 108.158 19.8917C108.933 19.8917 109.635 19.5369 110.299 18.8396C110.853 18.2524 111.112 17.7875 111.444 17.7875C111.69 17.7875 111.801 18.2279 112.195 19.0109C112.392 19.4268 112.97 19.7326 113.672 19.7326C114.927 19.7326 116.01 18.4604 116.01 17.4572C116.01 17.2125 115.924 17.0657 115.764 17.0657C115.432 17.0657 115.432 17.9588 114.681 17.9588C113.955 17.9588 113.905 17.3716 113.905 16.0137V9.3464C113.905 7.29117 113.487 6.52046 111.149 6.52046C109.709 6.52046 108.367 7.07097 107.284 8.13529C106.398 8.99163 105.979 9.82351 105.979 10.5453C105.979 11.1814 106.201 11.4628 106.706 11.4628C108.01 11.4628 108.096 10.4597 108.379 9.18737C108.662 7.93955 109.549 7.1933 110.435 7.1933C111.321 7.1933 111.518 7.80498 111.518 9.1629V10.0682H111.493ZM111.604 13.6526V14.3744C111.604 16.7354 110.853 17.9833 109.684 17.9833C108.933 17.9833 108.355 17.3471 108.355 16.4296C108.355 15.6834 108.798 14.6557 109.659 13.7627C110.435 12.9308 110.853 12.4292 111.222 12.4292C111.555 12.4292 111.604 12.8452 111.604 13.6526Z" fill="white"/>
</svg>
