<?xml version="1.0" encoding="utf-8"?>
<!-- Generator: Adobe Illustrator 26.5.0, SVG Export Plug-In . SVG Version: 6.00 Build 0)  -->
<svg version="1.1" id="Layer_1" xmlns="http://www.w3.org/2000/svg" xmlns:xlink="http://www.w3.org/1999/xlink" x="0px" y="0px"
	 viewBox="0 0 2242.5 310.6" style="enable-background:new 0 0 2242.5 310.6;" xml:space="preserve">
<style type="text/css">
	.st0{fill-rule:evenodd;clip-rule:evenodd;fill:#D82332;}
	.st1{fill-rule:evenodd;clip-rule:evenodd;fill:#FFFFFF;}
	.st2{enable-background:new    ;}
	.st3{fill:#FFFFFF;}
</style>
<g id="logo" transform="translate(2.600000, 4.700000)">
	<g id="Group-4" transform="translate(0.000000, 3.722772)">
		<path id="Fill-1" class="st0" d="M671.7,187.7C478.2,177,265.5,206.2,21.9,276.8c8.3,14.7,56,8.6,76.7,3.1
			c182.1-48.7,355.5-74.4,516.2-76.5c93.3-1.2,168.2,6.7,235.7,24.9c33.7,9.1,72.9,29.7,100,58.4
			C890.6,211.2,778.3,193.6,671.7,187.7"/>
	</g>
	<g>
		<path id="Fill-3" class="st1" d="M25.6,74.6c-1.8,0-3.2,0-4.5,0c-4.3,0-6.1-0.2-6.1-2.7c0-3.2,7.5-5.9,14.7-16.3
			c8.1-12,9-18.6,11.7-18.6c2,0,2.3,0.9,2.3,2.9c0,0.5,0,0.9,0,1.4v24.5h12.6c3.6,0,4.7,0,4.7,4.3c0,3.9-0.9,4.3-3.8,4.3H43.7v60.1
			c0,16.1,0,23.4,6.1,23.4s8.6-9.8,11.3-9.8c1.1,0,2,0.7,2,1.6c0,7.9-9.9,21.8-20.3,21.8c-14.2,0-17.2-12-17.2-36.8L25.6,74.6"/>
		<path id="Fill-5" class="st1" d="M73.7,86.9c0-4.8-0.7-5.9-3.6-6.6c-3.2-0.7-5.6,0-5.6-1.8c0-2.5,4.1-3.9,10.8-7.5
			c8.8-4.8,12-8.4,13.3-8.4c1.1,0,1.6,0.9,1.6,2.7V78c0,1.6,0,2.7,0,3.2c0,0.7,0.9,1.1,1.4,1.1c1.8,0,3.4-3.4,7.2-8.2
			c5.4-6.8,10.8-10.2,16.9-10.2c8.1,0,13.1,5.2,13.1,14.7c0,8.4-4.1,13.2-9.9,13.2c-5.9,0-8.1-2.3-9.3-7.9c-0.7-3-0.5-5.9-3.2-5.9
			c-7.9,0-14,12.3-14,33.8V155c0,5.9,1.1,8.4,4.7,9.3c3.2,0.7,5.6-0.2,5.6,2.5c0,2-0.9,2.7-3.2,2.7c-0.9,0-6.1-0.2-15.4-0.2
			c-9.7,0-15.1,0.2-16.3,0.2c-3.2,0-4.7-0.9-4.7-3c0-2.5,2.3-2.5,6.1-3.6c2.9-0.9,4.3-4.5,4.3-10.4V86.9"/>
		<path id="Fill-6" class="st1" d="M153.9,23.6c5.6,0,9,4.8,9,13.4c0,8.4-3.6,13.4-9,13.4s-9-5-9-13.4
			C144.9,28.8,148.8,23.6,153.9,23.6z M143.1,87.8c0-4.8-0.7-5.9-3.6-6.6c-3.2-0.7-5.4-0.2-5.4-2c0-3.4,4.7-3.2,10.4-6.1
			c10.6-5.7,14.7-9.5,15.8-9.5s1.6,0.9,1.6,2.7V155c0,5.9,1.1,8.4,4.8,9.3c3.2,0.7,5.9-0.2,5.9,2.5c0,2-1.1,2.7-3.4,2.7
			c-0.9,0-6.1-0.2-15.4-0.2c-9.7,0-14.9,0.2-16,0.2c-3.2,0-4.7-0.9-4.7-3c0-2.5,2-2.5,5.9-3.6c2.9-0.9,4.3-4.5,4.3-10.4V87.8H143.1z
			"/>
		<path id="Fill-7" class="st1" d="M203.6,201v-35.6c6.8,4.3,13.1,6.4,20.1,6.4c20.1,0,39.3-22.7,39.3-56
			c0-31.5-16.5-52.2-34.3-52.2c-7.7,0-12.4,3.9-18.3,8.8c-4.3,3.6-6.3,5.7-7.2,5.7c-1.4,0-1.4-1.8-1.4-4.5v-7.3
			c0-1.8-0.5-2.7-1.6-2.7c-2,0-5.9,5.2-16,10c-6.3,2.9-10.4,2.9-10.4,5.2c0,3.9,3.2,2.7,7.9,3.4c3.2,0.5,3.6,2,3.6,6.6v113.7
			c0,7.5-2,11.1-7.5,11.1c-0.2,0-0.9,0-1.4,0c-2.9,0-4.3,0.9-4.3,2.7c0,2,1.6,3,4.7,3c1.1,0,7-0.2,18.1-0.2
			c12.6,0,19.9,0.4,21.2,0.4c2.3,0,3.4-0.9,3.4-2.9c0-2.7-3.2-1.8-9.7-2.7C203.9,212.8,203.6,210.1,203.6,201z M203.9,101
			c0-16.8,3.6-25.4,15.4-25.4c13.8,0,22.8,15.4,22.8,44.9c0,29.7-9.3,45.4-22.4,45.4c-11.7,0-15.8-10.9-15.8-33.6V101z"/>
		<path id="Fill-8" class="st1" d="M335.6,86.9c0,6.4-0.2,8.6-4.3,8.6c-4.1,0-7-2.9-9.5-9.1c-4.3-10-6.1-16.3-13.3-16.3
			c-8.8,0-18.5,16.3-18.5,39.7c0,30.6,13.3,49.7,26.7,49.7c5.2,0,9.7-2.7,13.8-7.7c3.4-4.3,3.6-9.3,6.8-9.3c1.6,0,2.3,1.1,2.3,3.4
			c0,2.3-1.4,6.8-4.5,11.6c-6.8,10-14.9,14.7-25.5,14.7c-21.5,0-40.2-23.1-40.2-54.4c0-31.5,19.4-54.2,43.8-54.2
			c10.6,0,18.5,2.5,21,4.8c1.4,1.1,1.6,4.1,1.6,8.6v7.9C335.6,85.5,335.6,86.2,335.6,86.9"/>
		<path id="Fill-9" class="st1" d="M401.3,110.9c3.6,0,6.5,0,8.8,0c8.6,0,9-0.7,9-8.8c0-24.7-12.7-39-31.9-39
			c-24.4,0-42.2,22.9-42.2,57.2c0,30.6,17.6,52.4,40.2,52.4c20.3,0,34.6-16.3,34.6-26.5c0-1.8-0.7-3-2.3-3c-3.4,0-3.4,5.2-7,9.5
			c-5,5.7-11.1,8.6-18.3,8.6c-16,0-26.9-16.1-26.9-42.9c0-6.8,1.1-7.5,7.4-7.5c2,0,4.7,0,8.4,0L401.3,110.9L401.3,110.9z
			 M387.8,67.8c7.9,0,14,8.9,14,23.6c0,12.7-5,14.5-26.4,14.5c-6.8,0-9.3-1.1-9.3-5.4c0-5,2.5-14.7,7.5-22.9
			C377.6,71,382.1,67.8,387.8,67.8z"/>
		<path id="Fill-10" class="st1" d="M435.2,86.9c0-4.8-0.7-5.9-3.6-6.6c-3.2-0.7-5.4,0-5.4-1.8c0-2.5,3.8-3.9,10.6-7.5
			c8.8-4.8,12-8.4,13.3-8.4c1.1,0,1.6,0.9,1.6,2.7V74c0,1.6,0.2,2.7,0.2,3.2c0,0.7,0.7,1.4,1.1,1.4c1.1,0,3.2-2.5,7.2-5.7
			c7.5-5.9,14.2-9.3,22.8-9.3c20.3,0,27.3,12.2,27.3,37v50.6c0,7.3,0,10.2,4.3,12.3c3.2,1.4,7.9-0.2,7.9,3.4c0,2.5-2.7,2.7-8.8,2.7
			c-3.2,0-7.2-0.2-12.2-0.2c-3.6,0-6.3,0.2-8.1,0.2c-1.6,0-4.3-0.2-7.9-0.2c-2.5,0-3.6-0.5-3.6-2c0-3.6,3.8-2.5,6.1-3.8
			c3.4-2,3.6-5.4,3.6-11.8V96.6c0-15.9-4.5-23.4-16.9-23.4c-14.5,0-20.8,8.6-20.8,26.8v55c0,5.9,1.1,8.4,4.7,9.3
			c3.2,0.7,5.9-0.2,5.9,2.5c0,2-1.1,2.7-3.4,2.7c-0.9,0-6.1-0.2-15.4-0.2c-9.7,0-15.1,0.2-16.3,0.2c-3.2,0-4.5-0.9-4.5-3
			c0-2.5,2-2.5,5.9-3.6c2.9-0.9,4.3-4.5,4.3-10.4L435.2,86.9"/>
		<path id="Fill-11" class="st1" d="M532.1,74.6c-1.8,0-3.2,0-4.5,0c-4.3,0-6.1-0.2-6.1-2.7c0-3.2,7.5-5.9,14.7-16.3
			c8.1-12,9-18.6,11.8-18.6c2,0,2.3,0.9,2.3,2.9c0,0.5,0,0.9,0,1.4v24.5h12.6c3.6,0,4.7,0,4.7,4.3c0,3.9-0.9,4.3-3.8,4.3h-13.6v60.1
			c0,16.1,0,23.4,6.1,23.4s8.6-9.8,11.3-9.8c1.1,0,2,0.7,2,1.6c0,7.9-9.9,21.8-20.3,21.8c-14.2,0-17.2-12-17.2-36.8V74.6"/>
		<path id="Fill-12" class="st1" d="M582.5,86.9c0-4.8-0.7-5.9-3.6-6.6c-3.2-0.7-5.6,0-5.6-1.8c0-2.5,4.1-3.9,10.8-7.5
			c8.8-4.8,12-8.4,13.3-8.4c1.1,0,1.6,0.9,1.6,2.7V78c0,1.6,0,2.7,0,3.2c0,0.7,0.9,1.1,1.4,1.1c1.8,0,3.4-3.4,7.2-8.2
			C613,67.4,618.4,64,624.5,64c8.1,0,13.1,5.2,13.1,14.7c0,8.4-4.1,13.2-9.9,13.2c-5.9,0-8.1-2.3-9.3-7.9c-0.7-3-0.4-5.9-3.2-5.9
			c-7.9,0-14,12.3-14,33.8V155c0,5.9,1.1,8.4,4.7,9.3c3.2,0.7,5.7-0.2,5.7,2.5c0,2-0.9,2.7-3.2,2.7c-0.9,0-6.1-0.2-15.4-0.2
			c-9.7,0-15.1,0.2-16.3,0.2c-3.2,0-4.7-0.9-4.7-3c0-2.5,2.3-2.5,6.1-3.6c2.9-0.9,4.3-4.5,4.3-10.4V86.9"/>
		<path id="Fill-13" class="st1" d="M685.5,92.1c0,8.6,0,10.9-7,16.1c-23.5,17.2-37.3,27.9-37.3,45.4c0,11.6,7,18.8,17.2,18.8
			c6.3,0,12-2.9,17.4-8.6c4.5-4.8,6.6-8.6,9.3-8.6c2,0,2.9,3.6,6.1,10c1.6,3.4,6.3,5.9,12,5.9c10.2,0,19-10.4,19-18.6
			c0-2-0.7-3.2-2-3.2c-2.7,0-2.7,7.3-8.8,7.3c-5.9,0-6.3-4.8-6.3-15.9V86.2c0-16.8-3.4-23.1-22.4-23.1c-11.8,0-22.6,4.5-31.4,13.2
			c-7.2,7-10.6,13.8-10.6,19.7c0,5.2,1.8,7.5,5.9,7.5c10.6,0,11.3-8.2,13.6-18.6c2.3-10.2,9.5-16.3,16.7-16.3s8.8,5,8.8,16.1v7.4
			H685.5z M686.4,121.4v5.9c0,19.3-6.1,29.5-15.6,29.5c-6.1,0-10.8-5.2-10.8-12.7c0-6.1,3.6-14.5,10.6-21.8
			c6.3-6.8,9.7-10.9,12.7-10.9C686,111.4,686.4,114.8,686.4,121.4z"/>
		<path id="Fill-14" class="st1" d="M729.3,34.3c0-4.8-0.7-5.9-3.6-6.6c-3.2-0.7-5.6-0.2-5.6-2c0-3.4,5-3.2,10.6-6.1
			c10.6-5.7,14.7-9.8,15.8-9.8s1.6,0.9,1.6,2.7V155c0,5.9,1.1,8.4,4.7,9.3c3.2,0.7,5.7-0.2,5.7,2.5c0,2-0.9,2.7-3.2,2.7
			c-0.9,0-6.1-0.2-15.4-0.2c-9.7,0-15.1,0.2-16.3,0.2c-3.2,0-4.7-0.9-4.7-3c0-2.5,2.3-2.5,6.1-3.6c2.9-0.9,4.3-4.5,4.3-10.4
			L729.3,34.3"/>
		<path id="Fill-15" class="st1" d="M779.3,146.1c6.1,0,9.7,4.1,9.7,12.2c0,7.7-3.8,12.3-9.7,12.3c-6.3,0-9.7-4.3-9.7-12.3
			C769.5,150.2,772.9,146.1,779.3,146.1"/>
		<path id="Fill-16" class="st1" d="M860.4,95.5c-4.1,0-7-2.9-9.5-9.1c-4.3-10-6.1-16.3-13.3-16.3c-8.8,0-18.5,16.3-18.5,39.7
			c0,30.6,13.3,49.7,26.7,49.7c5.2,0,9.7-2.7,13.8-7.7c3.4-4.3,3.6-9.3,6.8-9.3c1.6,0,2.3,1.1,2.3,3.4c0,2.3-1.4,6.8-4.5,11.6
			c-6.8,10-14.9,14.7-25.5,14.7c-21.5,0-40.2-23.1-40.2-54.4c0-31.5,19.4-54.2,43.8-54.2c10.6,0,18.5,2.5,21,4.8
			c1.3,1.1,1.6,4.1,1.6,8.6v7.9c0,0.7,0,1.4,0,2C864.7,93.2,864.4,95.5,860.4,95.5z"/>
		<path id="Fill-17" class="st1" d="M920.9,92.1c0,8.6,0,10.9-7,16.1c-23.5,17.2-37.3,27.9-37.3,45.4c0,11.6,7,18.8,17.2,18.8
			c6.3,0,12-2.9,17.4-8.6c4.5-4.8,6.6-8.6,9.3-8.6c2,0,2.9,3.6,6.1,10c1.6,3.4,6.3,5.9,12,5.9c10.2,0,19-10.4,19-18.6
			c0-2-0.7-3.2-2-3.2c-2.7,0-2.7,7.3-8.8,7.3c-5.9,0-6.3-4.8-6.3-15.9V86.2c0-16.8-3.4-23.1-22.4-23.1c-11.7,0-22.6,4.5-31.4,13.2
			c-7.2,7-10.6,13.8-10.6,19.7c0,5.2,1.8,7.5,5.9,7.5c10.6,0,11.3-8.2,13.6-18.6c2.3-10.2,9.5-16.3,16.7-16.3s8.8,5,8.8,16.1v7.4
			H920.9z M921.8,121.4v5.9c0,19.3-6.1,29.5-15.6,29.5c-6.1,0-10.8-5.2-10.8-12.7c0-6.1,3.6-14.5,10.6-21.8
			c6.3-6.8,9.7-10.9,12.7-10.9C921.4,111.4,921.8,114.8,921.8,121.4z"/>
	</g>
</g>
<g class="st2">
	<path class="st3" d="M1035.3,96c0-1.6-0.4-1.9-4.2-1.9c-6,0-8.5,3.9-10.8,8.7c-1.3,3.1-2,5.9-3.4,5.9c-1.1,0-1.4-0.5-1.4-2.3
		c0-0.5,0.1-1.5,0.2-2.7c0.5-3.6,1.3-8.5,2.1-12.5c0.5-2.3,1-3.9,2-3.9c1.1,0,1.4,0.9,1.8,1.7c0.4,1,1,2,3,2h31.5
		c3.6,0,4.8-0.5,5.5-1.8c0.6-1,1.1-1.9,2.2-1.9c1.1,0,1.3,1,1.4,3c0,1.2-0.1,2.3-0.1,3.5c-0.1,3.2-0.3,7.8-0.5,11
		c-0.2,3-0.9,4.1-1.9,4.1c-1.4,0-1.7-2.8-2.5-5.7c-1.3-4.9-2.7-8.8-8.5-9h-3.8c-2.2,0-2.6,0.4-2.6,2v52.8c0,4.1,1,5.4,3.4,5.7
		c2.6,0.4,4.5,0.5,4.5,1.9c0,1.4-1.3,1.5-2.5,1.5c-2.1,0-4.5-0.4-10.5-0.4c-6.7,0-8.9,0.4-10.8,0.4c-1.6,0-2.3-0.4-2.3-1.5
		c0-1.1,0.6-1.6,3.9-1.9c3.5-0.2,4.1-1.7,4.1-6.3V96z"/>
	<path class="st3" d="M1073.6,94.3c0-3.1-0.4-3.8-3.3-4.2c-1.8-0.4-2.5-0.5-2.5-1.5c0-1.1,0.7-1.2,3-1.8c4.3-1.3,6.9-2.2,8.6-3.2
		c1.4-0.6,2-1,2.7-1s0.7,0.4,0.7,1.9v30.3c0,0.6,0.2,1,0.6,1s1-0.3,1.4-0.7c2.7-2.5,6.8-6.3,13-6.3c8,0,12.7,5.4,12.9,13.9V150
		c0,3.6,1,5,3.5,5.3c1.7,0.2,2.6,0.5,2.6,1.5c0,1-0.7,1.3-1.6,1.3c-1,0-4.2-0.4-8.9-0.4c-5.1,0-7,0.4-8.5,0.4
		c-1.2,0-1.8-0.4-1.8-1.4c0-1,0.7-1.2,1.9-1.4c2.7-0.4,3.5-1.4,3.5-4.4v-27.1c0-2.7-0.4-5-1.7-6.6c-1.5-2-3.7-3-6.6-3
		c-2.8,0-5.4,1.1-7.5,2.9c-1.9,1.8-2.9,3.9-2.9,6.6v26.9c0,2.8,1,4.2,4.2,4.7c1.6,0.3,2,0.5,2,1.5c0,1-0.7,1.3-1.6,1.3
		c-1.3,0-2.9-0.4-9.4-0.4c-5.2,0-6.9,0.4-8.8,0.4c-1,0-1.7-0.3-1.7-1.4c0-1,1-1.5,2-1.6c3.4-0.3,3.9-1.6,3.9-6V94.3z"/>
	<path class="st3" d="M1133.1,131.2c-2.2,0-2.9,0.6-2.9,2.6c0,11,5.1,19.7,13.3,19.7c5,0,8-2.3,9.7-5.7c1-1.9,1.4-3.2,2.1-3.2
		c0.6,0,1.1,0.3,1.1,1.5c0,1.4-1,3.6-1.9,5.2c-2.6,4.6-7.6,7.7-13.9,7.7c-12.7,0-20.4-10.5-20.4-24.4c0-17.5,10-26.4,20.7-26.4
		c9.4,0,15.7,6.8,15.7,17.3c0,5.2-0.2,5.7-3,5.7H1133.1z M1130.5,125.6c0,1.8,0.3,2.3,3.9,2.3c2,0,3.9-0.1,5.5-0.3
		c3.3-0.4,5.9-1.2,6.8-2c1.1-0.7,1.6-1.9,1.6-4.4c0-5.5-2.8-9.8-7.7-9.8c-6.2,0-10.2,7.3-10.2,14.1V125.6z"/>
</g>
<g class="st2">
	<path class="st3" d="M1210.8,143.1c0,4.4-2.1,8.4-5.2,11.2c-3.4,3.1-8,4.8-12.8,4.8c-3.5,0-8-1.3-10.6-3.1
		c-1.1-0.9-1.9-1.7-1.9-2.7c0-1.5,0.6-4.8,1.5-8.4c0.6-3.1,1.1-4.5,2.6-4.5c1.1,0,1.4,0.7,1.8,3.4c0.9,5.9,3,12.3,9.2,12.3
		c3.7,0,6.8-3.8,6.8-7.6c0-4.9-3.1-8.5-6.3-12.2c-3.3-3.5-6.3-7.4-6.3-12.6c0-8.5,7-15.8,16-15.8c4.7,0,11.5,1.8,11.5,4.3
		c0,1.7-0.4,3.8-1.1,6.1c-1.1,3.8-1.5,4.9-2.8,4.9c-1.9,0-2.2-3.1-3.1-6.2c-0.9-3.1-2.3-6.2-6.3-6.2c-3.8,0-6.5,3.3-6.5,7.1
		c0,4.2,3,7.7,6.3,11.5c3.5,3.9,7.1,8.1,7.1,13.4V143.1z"/>
	<path class="st3" d="M1241.6,112.5c0,4.1-3.3,13.4-5,18.5l0.2,0.1c4.2-6.3,13.8-23,23.3-23c3.6,0,5.8,2.8,5.8,7.5
		c0,4.4-2.6,12-4.3,16.3l0.2,0.2c2.2-3.9,6.2-10.6,11.1-15.9c3.9-4.3,8.9-8.1,13.3-8.1c4.1,0,6.6,2.5,6.6,6.6
		c0,2.5-1.2,6.1-2.6,10.1c-2.7,7.3-6.5,15.9-8.4,21.2c-0.4,1.3-1,3.1-1,3.9c0,0.9,0.3,1.5,1.4,1.5c2,0,4.5-2.8,7-6.3
		c2.8-3.7,3.5-6.1,4.5-6.1c0.6,0,0.9,0.5,0.9,1c0,1.3-2.2,5.7-5.1,9.4c-3.5,4.6-8.8,9.4-13.9,9.4c-2.8,0-4.6-1.8-4.6-4.8
		c0-2.8,1.4-7,3-11.5c1.9-4.9,4.3-10.4,6.1-15.2c1.6-4.3,3-8.1,3-10.1c0-1.6-1-2.6-2.5-2.6c-3.2,0-8.2,5.4-12.9,12.6
		c-4.4,6.8-9.3,16.2-13,26.5c-1.4,3.9-1.7,4.1-3.7,4.1h-4.4c-1.5,0-2-0.1-2-0.7c0-0.6,0.4-1.7,0.9-3c2.7-7.6,8-22.2,10-29.3
		c0.9-3.1,1.5-5.4,1.5-7c0-1.8-0.7-2.9-2.3-2.9c-2.6,0-6.9,4.6-11,10.8c-5.2,7.5-11,18.1-14.4,28c-1.5,4.3-1.7,4.3-4.2,4.3h-3.9
		c-1.6,0-2-0.1-2-0.9c0-0.4,0.4-1.7,0.9-2.9c3.5-10,7.4-21.3,10.9-31.6c1.1-2.9,1.6-5,1.6-6c0-1-0.5-1.6-1.6-1.6
		c-1.6,0-5.3,4.6-6.6,6.4c-1.5,1.9-3.1,4.9-3.9,4.9c-0.6,0-1-0.3-1-1c0-1.1,2.3-5,5-8.3c3.4-4.3,8.6-8.9,13.3-8.9
		c2.6,0,3.9,1.8,3.9,4.4V112.5z"/>
	<path class="st3" d="M1297.8,148.9c0-9.1,5-19.2,11.2-26.8c6.5-7.7,14.6-13.2,21.6-13.2c5,0,6.8,2.7,7.4,2.7c0.4,0,1-1.6,1.4-2.6
		c0.4-1,1-1.2,2.2-1.3h4.6c1,0,1.7,0.2,1.7,1.2c0,0.5-0.3,1.6-0.6,2.5c-3.1,9.8-6.5,20.2-9.8,30.1c-1.5,4.7-1.8,6.4-1.8,7.5
		c0,1.1,0.5,1.5,1.2,1.5c1.3,0,3.6-2.6,6.5-7.1c2.2-3.4,2.2-4.6,3.2-4.6c0.6,0,1,0.3,1,1c0,1.8-2.9,6.8-6.1,10.9
		c-3.4,4.3-8.2,8.5-12.4,8.5c-2.8,0-3.6-1.8-3.6-4.1c0-1.7,0.4-3.7,1.2-6.1c1.1-4.1,2.7-9,4.6-14.9l-0.2-0.1
		c-4.4,7-16.3,25.2-25.6,25.2c-5.4,0-7.5-4.2-7.5-10V148.9z M1336.4,116.1c0-2.8-1.9-4.3-4.6-4.3c-5,0-10.9,5.8-15.6,13.1
		c-4.9,8-8.6,16.8-8.6,21.9c0,2.5,1.1,4.4,3.3,4.4c3.9,0,10.6-7.6,15.6-14.9c4.9-7.1,9.9-16.3,9.9-20.1V116.1z"/>
	<path class="st3" d="M1391.8,114.3c0,5.9-3.5,10.5-6.8,10.5c-1.4,0-2.3-0.5-2.6-1.9c-0.4-1.9,0.5-3,0.5-4.9
		c-0.1-1.3-0.3-1.8-1.3-1.8c-1.5,0-4.8,4.8-8.1,11.4c-3.2,6.2-7.9,17.4-11,26.8c-1.2,3.1-1.2,3.4-4.9,3.4c-3.8,0-4.6,0-4.6-0.7
		c0-0.5,0.3-1.6,0.6-3c2.9-9.9,5.9-20.8,8.5-30.8c0.4-1.7,1.3-4.8,1.3-6.2c0-0.9-0.2-1.5-1.1-1.5c-1.4,0-3.3,2-5.4,5.3
		c-1.2,1.9-1.7,3.2-2.2,4.2c-0.4,1-0.7,1.5-1.5,1.5c-0.6,0-1.1-0.4-1.1-1.1c0-1.1,2.1-5.3,4.7-9c2.8-3.8,6.8-7.8,10.7-7.8
		c3.1,0,4.7,2,4.7,5.3c0,2.9-1.6,8.4-4.2,18.4l0.2,0.2c6.6-14.4,12.8-24.3,18.9-24.3c3.2,0,4.6,2.5,4.6,6V114.3z"/>
	<path class="st3" d="M1391.2,153.7c0-2.6,0.9-6.1,2.6-11.8c2-6.5,5.5-17.3,9.4-29h-6.3c-0.6,0-1-0.2-0.9-0.7
		c0.1-0.6,0.3-1.3,0.5-1.8c0.2-0.5,0.5-0.6,1.2-0.6h6.5l4.5-13.8c0.4-1.1,0.6-1.4,1.8-1.6c0.7-0.1,1.8-0.1,2.8-0.1h3.1
		c1.2,0,1.5,0.2,1.5,0.7c0,0.5-0.3,1.5-1,3.5c-0.7,2.7-2,6.7-3.4,11.2h7.8c0.7,0,1,0.1,0.9,0.7c-0.1,0.5-0.3,1.1-0.5,1.7
		c-0.1,0.6-0.5,0.7-1.2,0.7h-8c-3.8,12.5-6.8,21-8.9,27.2c-1.8,5.2-2.7,7.8-2.7,9.3c0,1.1,0.6,1.7,1.4,1.7c1.4,0,3.3-2.2,5.9-5.5
		c3.2-4.2,3.5-6.5,4.7-6.5c0.5,0,1,0.4,1,1.1c0,1.1-1.7,4.2-3.8,7.4c-3.5,5-9.4,11.3-14.4,11.3c-3,0-4.4-1.8-4.4-4.9V153.7z"/>
	<path class="st3" d="M1458,117.6c0,11.5-11.1,17-27.1,19c-0.5,0.1-1.1,0.2-1.6,0.2c-0.5,2.1-0.7,4.2-0.7,6.3c0,6.4,2.3,10,6.8,10
		c4.6,0,9.5-3.6,13.7-9.3c1.9-2.6,2.1-3.7,3-3.7c0.6,0,1.1,0.3,1.1,1.1s-1.1,2.7-2.5,4.8c-3.7,5.5-11.2,13.1-19.8,13.1
		c-7.7,0-12.1-5.9-12.1-16c0-18.6,15.4-35.1,28.6-35.1c6.6,0,10.7,4.2,10.7,9.5V117.6z M1446.6,110.5c-5.9,0-13.7,9.2-16.9,23.7
		c10.4-1.5,16.4-6.7,19-11.8c1.5-3.1,1.8-6,1.8-7.7c0-2.5-1.3-4.2-3.8-4.2H1446.6z"/>
	<path class="st3" d="M1500,114.3c0,5.9-3.5,10.5-6.8,10.5c-1.4,0-2.3-0.5-2.6-1.9c-0.4-1.9,0.5-3,0.5-4.9c-0.1-1.3-0.3-1.8-1.3-1.8
		c-1.5,0-4.8,4.8-8.1,11.4c-3.2,6.2-7.9,17.4-11,26.8c-1.2,3.1-1.2,3.4-4.9,3.4c-3.8,0-4.6,0-4.6-0.7c0-0.5,0.3-1.6,0.6-3
		c2.9-9.9,5.9-20.8,8.5-30.8c0.4-1.7,1.3-4.8,1.3-6.2c0-0.9-0.2-1.5-1.1-1.5c-1.4,0-3.3,2-5.4,5.3c-1.2,1.9-1.7,3.2-2.2,4.2
		c-0.4,1-0.7,1.5-1.5,1.5c-0.6,0-1.1-0.4-1.1-1.1c0-1.1,2.1-5.3,4.7-9c2.8-3.8,6.8-7.8,10.7-7.8c3.1,0,4.7,2,4.7,5.3
		c0,2.9-1.6,8.4-4.2,18.4l0.2,0.2c6.6-14.4,12.8-24.3,18.9-24.3c3.2,0,4.6,2.5,4.6,6V114.3z"/>
</g>
<g class="st2">
	<path class="st3" d="M1544.7,155.9c-0.5,1.6-0.9,2.9-3.3,2.9c-2,0-2.3-1.4-2.9-2.8l-12.9-38.6c-1.2-3.4-2.1-4.7-3.7-5
		c-1.3-0.2-2-0.6-2-1.6c0-1,0.7-1.4,1.9-1.4c2.6,0,5.1,0.3,7.7,0.3c2.6,0,5.1-0.3,7.6-0.3c1.4,0,2.1,0.3,2.1,1.3
		c0,1.1-1.2,1.3-2.2,1.5c-1.2,0.2-2.6,0.9-2.6,2.8c0,1.2,0.4,2.5,1.3,5l7.5,21.3c0.5,1.6,1,2.7,1.5,2.7c0.6,0,1.2-1.4,1.7-3.1
		l4.5-13.7c0.4-1.3,0.9-2.6,0.9-3.5c0-1.2-0.9-3.4-2.3-7.6c-0.9-2.2-2.1-3.3-3.5-3.6c-1.3-0.3-2.3-0.5-2.3-1.6c0-1,0.9-1.5,2.2-1.5
		c2.5,0,5.2,0.3,7.8,0.3c2.8,0,5.5-0.3,7.6-0.3c1.7,0,2.2,0.4,2.2,1.5c0,1.1-1.2,1.3-2.3,1.5c-1.3,0.2-2.7,0.7-2.7,2.2
		c0,0.9,0.5,2.6,1,4.1l6.9,22.1c0.5,1.4,1,3,1.5,3c0.6,0,1.2-2.2,1.7-3.9l6.2-20.5c0.5-1.5,0.7-3.3,0.7-3.9c0-2-1.5-2.7-3-2.9
		c-1.4-0.2-3-0.4-3-1.6c0-1,0.6-1.5,1.7-1.5c1.8,0,3.7,0.3,5.9,0.3c2.5,0,4.4-0.3,5.9-0.3c1,0,1.6,0.3,1.6,1.5s-1,1.4-2,1.7
		c-1.5,0.3-2.7,1.5-3.5,4.1l-12.2,39.3c-0.4,1.6-0.7,2.9-2.9,2.9c-2.2,0-2.7-1.4-3.1-2.9l-8.1-25.6h-0.2L1544.7,155.9z"/>
	<path class="st3" d="M1610.6,118.3c0-5-1.2-7-4.5-7c-5.1,0-7.5,3.8-9.2,9.1c-0.7,2.2-2,4.1-3.6,5.1c-1.2,0.9-2.7,1.5-4.3,1.5
		c-2,0-2.8-0.9-2.8-2.8c0-6.2,9.2-15.9,22.4-15.9c3.9,0,7,0.5,8.9,2.1c1.8,1.4,2.2,3.4,2.2,6.7v30.5c0,2.7,0.9,4.6,3,4.6
		c1.7,0,2.7-1,3.2-1.9c0.4-1,0.9-2,1.5-2c0.6,0,0.9,0.5,0.9,1.8c0,2.3-3.6,8.6-9.8,8.6c-4.5,0-5.8-3.6-6.6-5.8
		c-0.3-0.9-0.6-1.5-1.2-1.5c-0.9,0-2.6,2-5.2,3.9c-2.5,1.9-5.8,3.6-10,3.6c-5,0-9-3.4-9-9.6c0-5.7,3.9-9.5,12.6-14.8
		c3.4-2.2,6-3.7,7.9-5c2.9-1.7,3.6-2.7,3.6-5.1V118.3z M1596.1,147.6c0,3.9,2.2,6,5.3,6c2.3,0,4.6-1.4,6.6-3.4
		c1.9-1.9,2.6-3.4,2.6-6.1v-10.9c0-1.3-0.2-1.6-0.7-1.6s-1.1,0.2-2.5,1.1c-2.2,1.5-4.4,3.2-6.2,5c-3,2.8-5.1,6-5.1,9.8V147.6z"/>
	<path class="st3" d="M1633.8,175.4c0-2.7,1.5-4.1,4.2-4.3c1.8-0.2,3.4-0.2,4.5-0.9c0.9-0.4,2-2.9,3-5.4c1-2.6,1.8-5.2,1.8-6.6
		c0-2.2-0.5-3.5-1.9-7.7c-3.3-9.5-7-20.1-11.4-32c-1.7-5.1-2.8-6.2-4.4-6.3c-1.4-0.2-2.2-0.4-2.2-1.7c0-0.9,0.9-1.2,2-1.2
		c2.7,0,5.8,0.3,9.2,0.3c3.1,0,6.1-0.3,7.7-0.3c1.3,0,1.9,0.4,1.9,1.4c0,1-1.2,1-3,1.4c-1.6,0.3-2.6,1.1-2.6,2.6
		c0,1.4,0.6,3.2,1.9,7.4c2.3,7,6.9,21.3,7.8,21.3s5.8-15.8,7.7-21.8c1.3-4.6,1.6-5.7,1.6-6.7c0-1.8-1.4-2.3-3.8-2.7
		c-0.9-0.2-2.1-0.2-2.1-1.3c0-1.2,0.7-1.6,1.7-1.6c1.2,0,3.6,0.3,6.6,0.3c1.7,0,3.3-0.3,5.3-0.3c1,0,1.6,0.3,1.6,1.5
		c0,0.9-0.9,1.1-1.9,1.3c-1.9,0.4-3.1,2.5-5,7.6c-5.3,15.2-10.1,28.7-14.4,41.7c-1.7,5.5-2.9,9.5-3.8,13c-1.5,5.3-2.2,6.7-6.3,6.7
		c-4.5,0-5.5-1.4-5.5-5.7V175.4z"/>
	<path class="st3" d="M1710.1,147.3c0,4.2,1.2,6,3.7,6c2,0,3.3-1.4,4.2-2.7c1-1.3,1.6-2.6,2.5-2.6c0.6,0,1.1,0.3,1.1,1.1
		c0,1.6-2.9,9.9-11.2,9.9c-3.1,0-5.4-0.9-7-2.6c-1.7-1.9-2.3-4.5-2.3-8.5v-32.9c0-1.2-0.5-1.6-1.3-1.7c-0.7-0.1-1.7-0.1-2.6-0.1
		c-1,0-1.8-0.1-1.8-1.3c0-0.7,0.6-1.5,2-2.8c3.3-2.6,6.1-5.4,9.7-11.8c1-1.8,1.3-2.5,2-2.5s1.1,0.4,1.1,2.2v10.1
		c0,1.6,0.5,2.2,2.1,2.2h5.8c1.8,0,2.2,0.4,2.2,1.9c0,1.7-0.4,2.2-2.5,2.2c-1.8,0-3.7-0.1-5.5-0.1c-1.7,0-2.1,0.4-2.1,2.3V147.3z"/>
	<path class="st3" d="M1744.7,159.1c-12.4,0-20.9-11.5-20.9-25.4c0-13.7,8.2-25.4,21-25.4c13,0,21,11.8,21,25.3
		c0,14-8.5,25.5-21,25.5H1744.7z M1745.2,156.1c7.4,0,10.8-11.2,10.8-21.3c0-11.8-3.7-23.5-11.3-23.5c-7.4,0-10.9,10.7-10.9,21.3
		c0,11.8,3.8,23.5,11.3,23.5H1745.2z"/>
	<path class="st3" d="M1807.6,110.9c0,1.2,0.2,1.7,0.7,1.7c0.4,0,1.2-0.4,1.8-0.7c2.6-1.1,5.7-3.5,9.9-3.5
		c9.7,0,16.6,10.9,16.6,23.5c0,16.5-9.2,27.3-21.9,27.3c-3.3,0-5.8-1.3-7.8-2.2c-1.3-0.7-2.5-1.3-3.3-1.3c-1.3,0-1.9,1.1-2.5,2
		c-0.6,1.3-1.2,2.6-2.3,2.6c-0.9,0-1.4-0.6-1.4-1.7c0-0.7,0.4-2.3,0.5-3.6c0.1-1.8,0.2-4.4,0.2-9.6V94.3c0-3.2-0.7-3.8-3.3-4.2
		c-1.8-0.4-2.5-0.5-2.5-1.5c0-1.1,0.7-1.2,2.9-1.8c4.5-1.4,7.3-2.3,9-3.2c1.4-0.6,1.9-1,2.5-1c0.6,0,0.7,0.5,0.7,1.6V110.9z
		 M1826.8,134.8c0-15.4-5.4-21.3-12.5-21.3c-2.5,0-4.5,1.1-5.8,2.8c-0.7,1-1,1.9-1,3.4v27.7c0,5.3,2.1,8.6,6.9,8.6
		c7.7,0,12.3-7.6,12.3-21.1V134.8z"/>
	<path class="st3" d="M1863.2,159.1c-12.4,0-20.9-11.5-20.9-25.4c0-13.7,8.2-25.4,21-25.4c13,0,21,11.8,21,25.3
		c0,14-8.5,25.5-21,25.5H1863.2z M1863.6,156.1c7.4,0,10.8-11.2,10.8-21.3c0-11.8-3.7-23.5-11.3-23.5c-7.4,0-10.9,10.7-10.9,21.3
		c0,11.8,3.8,23.5,11.3,23.5H1863.6z"/>
	<path class="st3" d="M1910.2,159.1c-12.4,0-20.9-11.5-20.9-25.4c0-13.7,8.2-25.4,21-25.4c13,0,21,11.8,21,25.3
		c0,14-8.5,25.5-21,25.5H1910.2z M1910.6,156.1c7.4,0,10.8-11.2,10.8-21.3c0-11.8-3.7-23.5-11.3-23.5c-7.4,0-10.9,10.7-10.9,21.3
		c0,11.8,3.8,23.5,11.3,23.5H1910.6z"/>
	<path class="st3" d="M1941.4,93.8c0-2.7-0.7-3.3-3.3-3.6c-1.9-0.4-2.5-0.5-2.5-1.5c0-0.9,0.5-1.1,1.9-1.5c3.2-1,6.9-2.1,9.8-3.5
		c1.2-0.5,1.9-1,2.5-1c0.6,0,0.7,0.4,0.7,1.9v44c0,2.5,0.2,2.9,0.6,2.9c0.5,0,1.3-0.6,2.3-1.8c3.1-3.6,6.6-7.4,9.8-11.2
		c1.2-1.6,1.9-2.7,1.9-3.6c0-1.5-0.9-2.2-3.7-2.6c-1.2-0.1-2.3-0.4-2.3-1.6s0.7-1.3,2.5-1.3c2,0,5,0.3,7.7,0.3
		c3.6,0,5.8-0.3,8.2-0.3c1.5,0,2,0.2,2,1.2c0,1-0.9,1.3-2.5,1.7c-2.3,0.4-4.6,2.1-6.9,4.1c-2.5,2-4.8,4.3-7,6.6
		c-1.1,1.2-1.7,1.8-1.7,2.6c0,0.5,0.5,1.4,1.3,2.7c3.2,5.2,7.3,12.9,11.7,21c3.1,5,4.1,5.8,5.4,6c1.8,0.4,2.7,0.6,2.7,1.7
		c0,1-0.5,1.3-1.8,1.3c-2,0-4.9-0.4-8.3-0.4c-3.3,0-6.3,0.4-8.1,0.4c-0.9,0-1.4-0.2-1.4-1.2c-0.1-1,0.7-1.3,1.7-1.5
		c0.9-0.2,1.7-0.5,1.7-1.6c-0.1-0.6-0.9-2.2-1.9-4.1c-2.3-4.6-5.4-9.9-7.7-13.4c-1.2-2-1.9-3.3-2.5-3.3c-0.3,0-3.7,2.6-3.7,5.2v12.4
		c0,3.7,1.5,4.4,3.1,4.6c1.3,0.2,2.9,0.4,2.9,1.6c0,0.9-0.6,1.3-1.4,1.3c-2.1,0-6.1-0.4-9.1-0.4c-3.3,0-6.8,0.4-8.9,0.4
		c-1,0-1.6-0.4-1.6-1.4c0-1,0.9-1.3,2.6-1.6c3-0.3,3.2-1.7,3.2-3.9V93.8z"/>
	<path class="st3" d="M2021.5,147.3c0,4.2,1.2,6,3.7,6c2,0,3.3-1.4,4.2-2.7c1-1.3,1.6-2.6,2.5-2.6c0.6,0,1.1,0.3,1.1,1.1
		c0,1.6-2.9,9.9-11.2,9.9c-3.1,0-5.4-0.9-7-2.6c-1.7-1.9-2.3-4.5-2.3-8.5v-32.9c0-1.2-0.5-1.6-1.3-1.7c-0.7-0.1-1.7-0.1-2.6-0.1
		c-1,0-1.8-0.1-1.8-1.3c0-0.7,0.6-1.5,2-2.8c3.3-2.6,6.1-5.4,9.7-11.8c1-1.8,1.3-2.5,2-2.5s1.1,0.4,1.1,2.2v10.1
		c0,1.6,0.5,2.2,2.1,2.2h5.8c1.8,0,2.2,0.4,2.2,1.9c0,1.7-0.4,2.2-2.5,2.2c-1.8,0-3.7-0.1-5.5-0.1c-1.7,0-2.1,0.4-2.1,2.3V147.3z"/>
	<path class="st3" d="M2041,122.4c0-4.1-1-4.9-3.8-5c-1.2-0.1-1.7-0.2-1.7-1.1c0-1.2,0.7-1.5,2.5-1.9c2.2-0.7,5.3-1.9,7.9-4.1
		c1.3-1.3,1.9-2,2.8-2c0.6,0,1,0.5,1,1.7c0.1,1.4,0.1,3.2,0.1,5.1c0,1.5,0,2.6,0.4,2.6c0.9,0,1.6-2.3,3.2-4.6s3.9-4.7,7.7-4.7
		c4.1,0,6.6,3.1,6.6,7.7c0,3.8-1.7,6.7-5.1,6.7c-2.8,0-3.7-1.8-4.2-3.8c-0.4-1.7-0.7-3.4-2-3.4c-2,0-3.4,2.1-4.5,4.5
		c-1.2,2.6-1.5,5.1-1.5,7.3v21c0,4.8,0.3,6.4,4.1,6.8c2.6,0.4,3.8,0.6,3.8,1.7s-0.7,1.3-2.6,1.3c-1.5,0-3.4-0.4-9.9-0.4
		c-5.3,0-7.1,0.4-8.6,0.4c-1.3,0-2.1-0.3-2.1-1.3c0-1.2,1-1.4,2.7-1.7c3-0.3,3.4-1.2,3.4-5.9V122.4z"/>
	<path class="st3" d="M2095.3,118.3c0-5-1.2-7-4.5-7c-5.1,0-7.5,3.8-9.2,9.1c-0.7,2.2-2,4.1-3.6,5.1c-1.2,0.9-2.7,1.5-4.3,1.5
		c-2,0-2.8-0.9-2.8-2.8c0-6.2,9.2-15.9,22.4-15.9c3.9,0,7,0.5,8.9,2.1c1.8,1.4,2.2,3.4,2.2,6.7v30.5c0,2.7,0.9,4.6,3,4.6
		c1.7,0,2.7-1,3.2-1.9c0.4-1,0.9-2,1.5-2c0.6,0,0.9,0.5,0.9,1.8c0,2.3-3.6,8.6-9.8,8.6c-4.5,0-5.8-3.6-6.6-5.8
		c-0.3-0.9-0.6-1.5-1.2-1.5c-0.9,0-2.6,2-5.2,3.9c-2.5,1.9-5.8,3.6-10,3.6c-5,0-9-3.4-9-9.6c0-5.7,3.9-9.5,12.6-14.8
		c3.4-2.2,6-3.7,7.9-5c2.9-1.7,3.6-2.7,3.6-5.1V118.3z M2080.8,147.6c0,3.9,2.2,6,5.3,6c2.3,0,4.6-1.4,6.6-3.4
		c1.9-1.9,2.6-3.4,2.6-6.1v-10.9c0-1.3-0.2-1.6-0.7-1.6c-0.5,0-1.1,0.2-2.5,1.1c-2.2,1.5-4.4,3.2-6.2,5c-3,2.8-5.1,6-5.1,9.8V147.6z
		"/>
	<path class="st3" d="M2133,110.9c0,0.9-1,1.1-2.5,1.4c-2.2,0.5-3,1.2-3,2.5c0,0.9,0.3,1.6,1.1,4.3c1.5,5.4,3.3,11,5,16.8
		c1.8,6.6,2.3,7.7,2.9,7.7c0.6,0,1.4-1.3,3.5-8.3c1.6-5.1,3.3-9.8,4.8-14.6c0.9-2.7,1.3-4.5,1.3-5.4c0-2.1-1.5-2.6-2.9-2.8
		c-1.5-0.1-2.9-0.2-2.9-1.6c0-1.1,0.6-1.3,2-1.3c1.8,0,3.7,0.3,5.8,0.3c2.3,0,4.2-0.3,5.7-0.3c1.1,0,2,0.2,2,1.1
		c0,1.1-0.9,1.5-2.3,1.9c-2.8,0.6-3.4,3.5-5.1,8.1c-4.1,11.1-7.8,22.4-11.6,33.7c-0.9,2.6-1.1,4.6-3.5,4.6c-2.2,0-2.7-2.5-3.3-4.5
		c-3.7-11.7-8-25.5-10.8-33.9c-2-6.2-2.2-7.7-5.1-8.2c-1.2-0.2-2-0.5-2-1.4c0-1.2,1-1.4,2.2-1.4c1.9,0,5.2,0.3,8.6,0.3
		c3,0,5.4-0.3,7.7-0.3c2,0,2.5,0.3,2.5,1.4V110.9z"/>
	<path class="st3" d="M2168.8,131.2c-2.2,0-2.9,0.6-2.9,2.6c0,11,5.1,19.7,13.3,19.7c5,0,8-2.3,9.7-5.7c1-1.9,1.4-3.2,2.1-3.2
		c0.6,0,1.1,0.3,1.1,1.5c0,1.4-1,3.6-1.9,5.2c-2.6,4.6-7.6,7.7-13.9,7.7c-12.7,0-20.4-10.5-20.4-24.4c0-17.5,10-26.4,20.7-26.4
		c9.4,0,15.7,6.8,15.7,17.3c0,5.2-0.2,5.7-3,5.7H2168.8z M2166.3,125.6c0,1.8,0.3,2.3,3.9,2.3c2,0,3.9-0.1,5.5-0.3
		c3.3-0.4,5.9-1.2,6.8-2c1.1-0.7,1.6-1.9,1.6-4.4c0-5.5-2.8-9.8-7.7-9.8c-6.2,0-10.2,7.3-10.2,14.1V125.6z"/>
	<path class="st3" d="M2203.5,94.2c0-3.1-0.4-3.7-3.3-4.1c-1.8-0.4-2.5-0.5-2.5-1.5c0-0.9,0.6-1.2,2.1-1.6c4.3-1.2,7.4-2.2,9.4-3.3
		c1.4-0.6,2.1-1.1,2.7-1.1c0.6,0,0.9,0.5,0.9,2.1v65.7c0,3.2,0.9,3.8,4.5,4.6c1.2,0.3,2.2,0.5,2.2,1.6c0,1-0.7,1.4-1.7,1.4
		c-1.4,0-3.1-0.4-9.5-0.4c-6.1,0-7.9,0.4-9.4,0.4c-0.7,0-1.8-0.3-1.8-1.4c0-1,1.2-1.5,2.1-1.6c3.8-0.4,4.3-1.7,4.3-5.3V94.2z"/>
</g>
</svg>
